<?xml version="1.0" encoding="utf-8"?>
<!-- Generator: Adobe Illustrator 26.0.3, SVG Export Plug-In . SVG Version: 6.00 Build 0)  -->
<svg version="1.1" id="Layer_1" xmlns="http://www.w3.org/2000/svg" xmlns:xlink="http://www.w3.org/1999/xlink" x="0px" y="0px"
	 viewBox="0 0 152.9 49.7" style="enable-background:new 0 0 152.9 49.7;" xml:space="preserve">
<style type="text/css">
	.st0{fill:#00FFE0;}
</style>
<rect class="st0" width="41" height="5"/>
<rect y="22.4" class="st0" width="41" height="5"/>
<rect y="7.5" class="st0" width="11.2" height="5"/>
<rect x="29.8" y="7.5" class="st0" width="11.2" height="5"/>
<rect x="29.8" y="14.9" class="st0" width="11.2" height="5"/>
<rect y="14.9" class="st0" width="11.2" height="5"/>
<rect y="29.8" class="st0" width="11.2" height="5"/>
<rect y="37.3" class="st0" width="11.2" height="5"/>
<rect y="44.7" class="st0" width="11.2" height="5"/>
<rect x="55.9" y="7.5" class="st0" width="11.2" height="5"/>
<rect x="55.9" class="st0" width="11.2" height="5"/>
<rect x="55.9" y="14.9" class="st0" width="11.2" height="5"/>
<rect x="55.9" y="22.4" class="st0" width="11.2" height="5"/>
<rect x="55.9" y="29.8" class="st0" width="11.2" height="5"/>
<rect x="55.9" y="37.3" class="st0" width="11.2" height="5"/>
<rect x="111.8" y="7.5" class="st0" width="15.5" height="5"/>
<rect x="137.3" y="37.3" class="st0" width="15.5" height="5"/>
<rect x="111.8" class="st0" width="11.2" height="5"/>
<rect x="141.7" y="44.7" class="st0" width="11.2" height="5"/>
<rect x="111.8" y="44.7" class="st0" width="11.2" height="5"/>
<rect x="111.8" y="14.9" class="st0" width="11.2" height="5"/>
<rect x="126.1" y="14.9" class="st0" width="6.8" height="5"/>
<rect x="111.8" y="22.4" class="st0" width="11.2" height="5"/>
<rect x="129.2" y="22.4" class="st0" width="6.8" height="5"/>
<rect x="111.8" y="29.8" class="st0" width="11.2" height="5"/>
<rect x="132.3" y="29.8" class="st0" width="6.8" height="5"/>
<rect x="111.8" y="37.3" class="st0" width="11.2" height="5"/>
<rect x="141.7" y="7.5" class="st0" width="11.2" height="5"/>
<rect x="141.7" class="st0" width="11.2" height="5"/>
<rect x="141.7" y="14.9" class="st0" width="11.2" height="5"/>
<rect x="141.7" y="22.4" class="st0" width="11.2" height="5"/>
<rect x="141.7" y="29.8" class="st0" width="11.2" height="5"/>
<rect x="85.7" y="7.5" class="st0" width="11.2" height="5"/>
<rect x="85.7" class="st0" width="11.2" height="5"/>
<rect x="85.7" y="14.9" class="st0" width="11.2" height="5"/>
<rect x="85.7" y="22.4" class="st0" width="11.2" height="5"/>
<rect x="85.7" y="29.8" class="st0" width="11.2" height="5"/>
<rect x="85.7" y="37.3" class="st0" width="11.2" height="5"/>
<rect x="61.5" y="44.7" class="st0" width="11.2" height="5"/>
<rect x="70.8" y="37.3" class="st0" width="11.2" height="5"/>
<rect x="70.8" y="29.8" class="st0" width="11.2" height="5"/>
<rect x="80.2" y="44.7" class="st0" width="11.2" height="5"/>
</svg>
